<?xml version="1.0" encoding="UTF-8"?>
<svg xmlns="http://www.w3.org/2000/svg" version="1.1" viewBox="0 0 800 800">
  <defs>
    <style>
      .cls-1 {
        fill: #f8f8f8;
      }

      .cls-2 {
        fill: #fdfdfd;
      }

      .cls-3 {
        fill: #ff0040;
      }

      .cls-4 {
        fill: #1355b2;
      }

      .cls-5 {
        fill: #5c8aca;
      }
    </style>
  </defs>
  <!-- Generator: Adobe Illustrator 28.7.1, SVG Export Plug-In . SVG Version: 1.2.0 Build 142)  -->
  <g>
    <g id="Layer_1">
      <path class="cls-2" d="M683,800H117c-37.6,0-68.1-30.5-68.1-68.1V171.5c0-37.6,30.5-68.1,68.1-68.1h565.9c37.6,0,68.1,30.5,68.1,68.1v560.4c0,37.6-30.5,68.1-68.1,68.1Z"/>
      <path class="cls-1" d="M683,103.3h-66.3c37.6,0,68.1,30.5,68.1,68.1v560.4c0,37.6-30.5,68.1-68.1,68.1h66.3c37.6,0,68.1-30.5,68.1-68.1V171.5c0-37.6-30.5-68.1-68.1-68.1Z"/>
      <path class="cls-5" d="M751.1,316.6H48.9v-145.3c0-37.5,30.4-68,68-68h566.3c37.5,0,68,30.4,68,68v145.3h0Z"/>
      <path class="cls-4" d="M616.8,103.3h66.3c37.5,0,68,30.4,68,68v145.3h-66.3v-145.3c0-37.5-30.4-68-68-68Z"/>
      <path class="cls-3" d="M222.4,193.5h0c-22.1,0-40.1-17.9-40.1-40.1V40.1c0-22.1,17.9-40.1,40.1-40.1h0c22.1,0,40.1,17.9,40.1,40.1v113.3c0,22.1-17.9,40.1-40.1,40.1Z"/>
      <path class="cls-3" d="M570.7,193.5h0c-22.1,0-40.1-17.9-40.1-40.1V40.1c0-22.1,17.9-40.1,40.1-40.1h0c22.1,0,40.1,17.9,40.1,40.1v113.3c0,22.1-17.9,40.1-40.1,40.1Z"/>
      <path class="cls-5" d="M325.1,616.5c-11.2,0-22-4.1-30.3-12.4-7-7-18.5-7-25.5,0-7,7-7,18.5,0,25.5,15.3,15.3,35.7,23.3,55.8,23.3s40.8-8,56.1-23.3c15.6-15.6,23.3-36,23.3-56.1s-7.7-40.5-23.3-55.8c-6.4-6.7-14-11.8-22.3-15.6l40.2-41.4c1.2-1.3,2.2-2.9,3.2-4.5,1.2-2.5,2.2-5.4,2.2-8.6,0-9.9-8-17.9-18.2-17.9h-94c-9.9,0-17.9,8-17.9,17.9s8,18.2,17.9,18.2h51.6l-32.5,33.1c-6.7,7.3-6.7,18.5.6,25.5q0,.3.3.3c3.2,3.8,8,6.1,13.1,5.7,11.2.3,22,4.1,30.3,12.7,8.6,8.3,12.7,19.1,12.7,30.3s-4.2,22-12.7,30.6c-8.6,8.3-19.4,12.4-30.6,12.4Z"/>
      <path class="cls-5" d="M521.1,446.6c-.3-9.4-8-16.9-17.5-16.9s-4.5.4-6.5,1.2c0,0-.2,0-.2,0-.2,0-.3.1-.4.2-.8.3-1.5.7-2.2,1.2-.1,0-.2.1-.3.2,0,0-.2.1-.3.2l-39,23.1c-8.3,4.8-11.1,15.9-5.7,23.9,3.2,5.7,8.9,8.9,15,8.9s6.1-.6,8.9-2.5l12.7-7.3v156.8c0,9.9,7.7,17.5,17.5,17.5s17.8-7.7,17.8-17.5v-188.1h0c0-.2,0-.2,0-.3s0-.2,0-.3v-.4h0Z"/>
    </g>
  </g>
</svg>