<svg id="Слой_1" data-name="Слой 1" xmlns="http://www.w3.org/2000/svg" width="800" height="800" viewBox="0 0 800 800">
    <path d="M117.05,798.5c-38.93,0-70.6-31.5-70.6-70.22V171c0-38.72,31.67-70.22,70.6-70.22H683c38.93,0,70.6,31.5,70.6,70.22V728.28c0,38.69-31.62,70.17-70.5,70.22h-566Z"
          fill="#f8f8f8"/>
    <path d="M683,103.3c37.6,0,68.1,30.33,68.1,67.72V728.28c0,37.39-30.5,67.72-68.1,67.72H117.05C79.45,796,49,765.67,49,728.28V171c0-37.39,30.5-67.72,68.1-67.72H683m0-5H117.05C76.74,98.3,44,130.92,44,171V728.28c0,40.1,32.79,72.72,73.1,72.72h566c40.26-.06,73-32.66,73-72.72V171c0-40.1-32.79-72.72-73.1-72.72Z"
          fill="#5c8aca"/>
    <path d="M683.2,103.3a68,68,0,0,1,68,68V316.6H48.9V171.3a68,68,0,0,1,68-68H683.2m0-5H116.9a73.09,73.09,0,0,0-73,73V321.6H756.2V171.3a73.09,73.09,0,0,0-73-73Z"
          fill="#5c8aca"/>
    <path d="M225.85,191a37.65,37.65,0,0,1-37.6-37.6V40.1a37.6,37.6,0,0,1,75.2,0V153.4A37.65,37.65,0,0,1,225.85,191Z"
          fill="#f8f8f8"/>
    <path d="M225.85,5A35.15,35.15,0,0,1,261,40.1V153.4a35.1,35.1,0,0,1-70.2,0V40.1A35.15,35.15,0,0,1,225.85,5m0-5a40.1,40.1,0,0,0-40.1,40.1V153.4a40.1,40.1,0,0,0,80.2,0V40.1A40.1,40.1,0,0,0,225.85,0Z"
          fill="#ff0040"/>
    <path d="M574.15,191a37.65,37.65,0,0,1-37.6-37.6V40.1a37.6,37.6,0,0,1,75.2,0V153.4A37.65,37.65,0,0,1,574.15,191Z"
          fill="#f8f8f8"/>
    <path d="M574.15,5a35.15,35.15,0,0,1,35.1,35.1V153.4a35.1,35.1,0,0,1-70.2,0V40.1A35.15,35.15,0,0,1,574.15,5m0-5a40.1,40.1,0,0,0-40.1,40.1V153.4a40.1,40.1,0,0,0,80.2,0V40.1A40.1,40.1,0,0,0,574.15,0Z"
          fill="#ff0040"/>
    <path d="M325.1,616.5a42.33,42.33,0,0,1-30.3-12.4,18,18,0,0,0-25.5,25.5,79.25,79.25,0,0,0,135.2-56.1,78,78,0,0,0-23.3-55.8,71.89,71.89,0,0,0-22.3-15.6l40.2-41.4a30.23,30.23,0,0,0,3.2-4.5,19.89,19.89,0,0,0,2.2-8.6,18,18,0,0,0-18.2-17.9h-94a17.88,17.88,0,0,0-17.9,17.9,18.14,18.14,0,0,0,17.9,18.2h51.6l-32.5,33.1a18.11,18.11,0,0,0,.6,25.5.27.27,0,0,0,.3.3,15.62,15.62,0,0,0,13.1,5.7c11.2.3,22,4.1,30.3,12.7a41.43,41.43,0,0,1,12.7,30.3A43,43,0,0,1,355.7,604a43.53,43.53,0,0,1-30.6,12.4Z"
          fill="#5c8aca"/>
    <path d="M521.1,446.6a17.47,17.47,0,0,0-17.5-16.9c-9.5,0-4.5.4-6.5,1.2h-.2a.52.52,0,0,0-.4.2,9.41,9.41,0,0,0-2.2,1.2c-.1,0-.2.1-.3.2a1.44,1.44,0,0,0-.3.2l-39,23.1a17.85,17.85,0,0,0,9.3,32.8c6.1,0,6.1-.6,8.9-2.5l12.7-7.3V635.6a17.27,17.27,0,0,0,17.5,17.5,17.59,17.59,0,0,0,17.8-17.5V447.5h0v-1h0Z"
          fill="#5c8aca"/>
</svg>